HIERARCHY
ROOT Hips
{
	OFFSET 0.000000 0.000000 0.000000
	CHANNELS 6 Xposition Yposition Zposition Zrotation Yrotation Xrotation 
	JOINT LHipJoint
	{
		OFFSET 0.000000 0.000000 0.000000
		CHANNELS 3 Zrotation Yrotation Xrotation
		JOINT LeftUpLeg
		{
			OFFSET 1.363060 -1.794630 0.839290
			CHANNELS 3 Zrotation Yrotation Xrotation
			JOINT LeftLeg
			{
				OFFSET 2.448110 -6.726130 0.000000
				CHANNELS 3 Zrotation Yrotation Xrotation
				JOINT LeftFoot
				{
					OFFSET 2.562200 -7.039590 0.000000
					CHANNELS 3 Zrotation Yrotation Xrotation
					JOINT LeftToeBase
					{
						OFFSET 0.157640 -0.433110 2.322550
						CHANNELS 3 Zrotation Yrotation Xrotation
						End Site
						{
							OFFSET 0.000000 0.000000 0.000000
						}
					}
				}
			}
		}
	}
	JOINT RHipJoint
	{
		OFFSET 0.000000 0.000000 0.000000
		CHANNELS 3 Zrotation Yrotation Xrotation
		JOINT RightUpLeg
		{
			OFFSET -1.305520 -1.794630 0.839290
			CHANNELS 3 Zrotation Yrotation Xrotation
			JOINT RightLeg
			{
				OFFSET -2.542530 -6.985550 0.000000
				CHANNELS 3 Zrotation Yrotation Xrotation
				JOINT RightFoot
				{
					OFFSET -2.568260 -7.056230 0.000000
					CHANNELS 3 Zrotation Yrotation Xrotation
					JOINT RightToeBase
					{
						OFFSET -0.164730 -0.452590 2.363150
						CHANNELS 3 Zrotation Yrotation Xrotation
						End Site
						{
							OFFSET 0.000000 0.000000 0.000000
						}
					}
				}
			}
		}
	}
	JOINT LowerBack
	{
		OFFSET 0.000000 0.000000 0.000000
		CHANNELS 3 Zrotation Yrotation Xrotation
		JOINT Spine
		{
			OFFSET 0.028270 2.035590 -0.193380
			CHANNELS 3 Zrotation Yrotation Xrotation
			JOINT Spine1
			{
				OFFSET 0.056720 2.048850 -0.042750
				CHANNELS 3 Zrotation Yrotation Xrotation
				JOINT Neck
				{
					OFFSET 0.000000 0.000000 0.000000
					CHANNELS 3 Zrotation Yrotation Xrotation
					JOINT Neck1
					{
						OFFSET -0.054170 1.746240 0.172020
						CHANNELS 3 Zrotation Yrotation Xrotation
						JOINT Head
						{
							OFFSET 0.104070 1.761360 -0.123970
							CHANNELS 3 Zrotation Yrotation Xrotation
							End Site
							{
								OFFSET 0.000000 0.000000 0.000000
							}
						}
					}
				}
				JOINT LeftShoulder
				{
					OFFSET 0.000000 0.000000 0.000000
					CHANNELS 3 Zrotation Yrotation Xrotation
					JOINT LeftArm
					{
						OFFSET 3.362410 1.200890 -0.311210
						CHANNELS 3 Zrotation Yrotation Xrotation
						JOINT LeftForeArm
						{
							OFFSET 4.983000 -0.000000 -0.000000
							CHANNELS 3 Zrotation Yrotation Xrotation
							JOINT LeftHand
							{
								OFFSET 3.483560 -0.000000 -0.000000
								CHANNELS 3 Zrotation Yrotation Xrotation
								JOINT LeftFingerBase
								{
									OFFSET 0.000000 0.000000 0.000000
									CHANNELS 3 Zrotation Yrotation Xrotation
									JOINT LeftHandIndex1
									{
										OFFSET 0.715260 -0.000000 -0.000000
										CHANNELS 3 Zrotation Yrotation Xrotation
										End Site
										{
											OFFSET 0.000000 0.000000 0.000000
										}
									}
								}
								JOINT LThumb
								{
									OFFSET 0.000000 0.000000 0.000000
									CHANNELS 3 Zrotation Yrotation Xrotation
									End Site
									{
										OFFSET 0.000000 0.000000 0.000000
									}
								}
							}
						}
					}
				}
				JOINT RightShoulder
				{
					OFFSET 0.000000 0.000000 0.000000
					CHANNELS 3 Zrotation Yrotation Xrotation
					JOINT RightArm
					{
						OFFSET -3.136600 1.374050 -0.404650
						CHANNELS 3 Zrotation Yrotation Xrotation
						JOINT RightForeArm
						{
							OFFSET -5.241900 -0.000000 -0.000000
							CHANNELS 3 Zrotation Yrotation Xrotation
							JOINT RightHand
							{
								OFFSET -3.444170 -0.000000 -0.000000
								CHANNELS 3 Zrotation Yrotation Xrotation
								JOINT RightFingerBase
								{
									OFFSET 0.000000 0.000000 0.000000
									CHANNELS 3 Zrotation Yrotation Xrotation
									JOINT RightHandIndex1
									{
										OFFSET -0.622530 -0.000000 -0.000000
										CHANNELS 3 Zrotation Yrotation Xrotation
										End Site
										{
											OFFSET 0.000000 0.000000 0.000000
										}
									}
								}
								JOINT RThumb
								{
									OFFSET 0.000000 0.000000 0.000000
									CHANNELS 3 Zrotation Yrotation Xrotation
									End Site
									{
										OFFSET 0.000000 0.000000 0.000000
									}
								}
							}
						}
					}
				}
			}
		}
	}
}
MOTION
Frames: 8
Frame Time: 0.008333
-0.775233 17.275356 -2.878648 126.129647 -84.302486 -111.118813 -9.781033 0.014634 3.385872 -4.838990 -8.660163 -36.965099 0.858252 1.409927 44.904785 3.936803 25.550558 11.786043 9.058700 0.000000 -52.014900 9.619000 -1.018812 2.967273 7.681821 4.994156 -22.292996 1.571664 -0.219409 18.257285 -2.304708 -8.266348 -11.182819 0.031000 0.000000 -44.826200 -2.052087 -2.949675 -6.747514 -0.902808 -3.044460 -3.850243 -5.971628 -3.165874 1.762172 9.875168 -12.826160 -10.627648 -3.150306 -0.222237 -0.745246 0.000000 0.000000 0.000000 -0.063651 9.514500 1.564236 -75.548797 12.513766 4.538644 -3.466974 -23.179935 0.003066 1.732661 -0.926575 -0.013869 -0.089165 -0.031852 -0.000000 0.000000 0.000000 0.000000 0.000000 0.000000 0.000000 15.841744 -9.916950 1.236380 73.708367 -3.109826 -1.162269 4.050556 18.513009 0.012222 2.825568 4.495553 0.108643 0.106867 -0.056246 -0.000000 0.000000 0.000000 0.000000 0.000000 0.000000 0.000000 
-0.746266 17.288785 -2.910125 122.919321 -84.064866 -108.264731 -9.659316 -0.151507 3.408696 -4.982989 -9.627711 -38.725746 1.030315 1.583095 48.545169 3.858265 25.029521 14.722496 9.850800 0.000000 -51.867000 9.862899 -0.912093 2.749463 7.240337 4.284022 -21.985677 1.531638 -0.262933 18.301471 -2.211057 -7.925515 -10.994983 0.011100 0.000000 -45.549700 -2.359569 -2.972828 -6.523171 -0.962701 -3.032665 -3.812165 -5.933940 -3.154855 1.715924 9.727409 -12.717780 -10.536635 -3.157567 -0.223566 -0.723073 0.000000 0.000000 0.000000 0.089734 9.326255 1.574963 -75.720501 12.590466 4.731854 -3.475721 -23.018869 0.002929 1.628938 -0.873613 -0.012276 -0.088486 -0.032793 -0.000000 0.000000 0.000000 0.000000 0.000000 0.000000 0.000000 15.731645 -9.820512 1.230744 73.578855 -3.223040 -0.624587 4.046233 18.574398 0.012476 2.880895 4.619813 0.113843 0.107016 -0.055375 -0.000000 0.000000 0.000000 0.000000 0.000000 0.000000 0.000000 
-0.714188 17.303965 -2.940412 119.888106 -83.790839 -105.624964 -9.532349 -0.327089 3.399148 -5.187316 -10.500949 -40.548930 1.179944 1.760152 52.265856 3.755763 24.131136 17.599019 10.346500 -0.000000 -51.417901 10.113273 -0.793253 2.529873 6.748186 3.618479 -21.600126 1.478436 -0.301352 18.286899 -2.131059 -7.657570 -10.773487 -0.014200 0.000001 -46.247500 -2.688909 -2.979555 -6.257624 -1.029643 -3.002038 -3.770285 -5.899839 -3.124851 1.654877 9.572331 -12.558884 -10.421997 -3.168030 -0.225363 -0.695235 0.000000 0.000000 0.000000 0.254748 9.091110 1.586432 -75.868161 12.649518 5.017659 -3.484422 -22.893097 0.002733 1.480685 -0.801274 -0.010183 -0.087635 -0.033856 -0.000000 0.000000 0.000000 0.000000 0.000000 0.000000 0.000000 15.611776 -9.667917 1.231435 73.471950 -3.303305 -0.185436 4.040554 18.537405 0.012826 2.902171 4.796673 0.119045 0.107229 -0.055007 -0.000000 0.000000 0.000000 0.000000 0.000000 0.000000 0.000000 
-0.679042 17.320756 -2.969531 117.100236 -83.482944 -103.263188 -9.402749 -0.510563 3.350694 -5.456018 -11.261424 -42.424948 1.311652 1.946552 56.059001 3.636274 22.884430 20.314214 10.502100 0.000000 -50.710600 10.366153 -0.664679 2.311621 6.210373 3.021830 -21.124664 1.411191 -0.334281 18.205213 -2.068128 -7.478328 -10.520833 -0.044800 -0.000000 -46.887500 -3.039507 -2.967540 -5.946585 -1.103509 -2.950455 -3.723606 -5.869165 -3.073614 1.580467 9.413113 -12.355930 -10.285058 -3.180063 -0.227463 -0.662144 0.000000 0.000000 0.000000 0.436548 8.809885 1.597704 -75.988878 12.684429 5.418259 -3.492969 -22.805973 0.002474 1.285675 -0.707873 -0.007791 -0.086641 -0.035060 -0.000000 0.000000 0.000000 0.000000 0.000000 0.000000 0.000000 15.479945 -9.466127 1.239490 73.393170 -3.337278 0.165148 4.033095 18.383071 0.013256 2.874695 5.019862 0.123247 0.107597 -0.055108 -0.000000 0.000000 0.000000 0.000000 0.000000 0.000000 0.000000 
-0.640535 17.338987 -2.997590 114.589224 -83.146018 -101.217319 -9.272821 -0.701383 3.257281 -5.790117 -11.894946 -44.342525 1.433179 2.146762 59.914896 3.507433 21.354535 22.797167 10.325300 -0.000000 -49.908900 10.618459 -0.528767 2.096057 5.634178 2.513380 -20.547782 1.329547 -0.362111 18.050143 -2.024629 -7.399653 -10.237870 -0.081300 -0.000000 -47.457100 -3.410417 -2.934838 -5.584341 -1.184363 -2.876282 -3.672224 -5.843047 -2.999449 1.488283 9.251656 -12.099240 -10.120679 -3.193815 -0.229940 -0.622445 0.000000 0.000000 0.000000 0.640312 8.465790 1.609445 -76.080187 12.708529 5.939796 -3.501008 -22.774090 0.002144 1.041222 -0.591163 -0.005200 -0.085491 -0.036455 -0.000000 0.000000 0.000000 0.000000 0.000000 0.000000 0.000000 15.335221 -9.204197 1.257020 73.352270 -3.335352 0.402365 4.023412 18.111416 0.013727 2.796642 5.271511 0.125648 0.108096 -0.055654 -0.000000 0.000000 0.000000 0.000000 0.000000 0.000000 0.000000 
-0.598520 17.358454 -3.024760 112.361113 -82.786140 -99.495818 -9.144004 -0.899640 3.114229 -6.186778 -12.393223 -46.291156 1.553852 2.363512 63.821424 3.376718 19.633567 25.003260 9.865800 -0.000000 -49.131400 10.868242 -0.387829 1.882961 5.028326 2.105894 -19.860729 1.233747 -0.385798 17.819151 -2.001830 -7.428191 -9.925682 -0.124600 -0.000000 -47.948900 -3.800596 -2.880156 -5.164762 -1.272178 -2.778645 -3.615736 -5.822511 -2.901401 1.375577 9.091198 -11.783876 -9.925846 -3.209317 -0.232827 -0.575393 0.000000 0.000000 0.000000 0.871139 8.047252 1.622080 -76.139028 12.728099 6.594112 -3.507968 -22.809186 0.001739 0.747343 -0.450788 -0.002710 -0.084165 -0.038083 -0.000000 0.000000 0.000000 0.000000 0.000000 0.000000 0.000000 15.179776 -8.876589 1.285636 73.354694 -3.302355 0.520698 4.010918 17.724310 0.014199 2.668081 5.534875 0.125550 0.108690 -0.056589 -0.000000 0.000000 0.000000 0.000000 0.000000 0.000000 0.000000 
-0.552737 17.378854 -3.051262 110.396578 -82.410531 -98.081842 -9.016555 -1.106334 2.918674 -6.639160 -12.755088 -48.262702 1.683110 2.597464 67.763460 3.251273 17.832515 26.916208 9.204600 0.000001 -48.524201 11.114536 -0.243687 1.670439 4.402556 1.804204 -19.059386 1.124780 -0.406932 17.514954 -1.999730 -7.564164 -9.585882 -0.175900 0.000000 -48.362500 -4.209282 -2.802945 -4.681840 -1.366972 -2.657512 -3.553715 -5.808783 -2.779375 1.239636 8.935675 -11.404958 -9.697932 -3.226923 -0.236177 -0.520376 0.000000 0.000000 0.000000 1.134163 7.543944 1.636220 -76.160689 12.748222 7.394289 -3.513065 -22.922120 0.001259 0.406165 -0.288591 -0.000821 -0.082639 -0.039989 -0.000000 0.000000 0.000000 0.000000 0.000000 0.000000 0.000000 15.018647 -8.477773 1.326632 73.402050 -3.244400 0.523504 3.994916 17.231302 0.014630 2.494237 5.792830 0.122450 0.109302 -0.057839 0.000000 0.000000 0.000000 0.000000 0.000000 0.000000 0.000000 
-0.503205 17.399829 -3.077306 108.664869 -82.026401 -96.943391 -8.889905 -1.322617 2.669609 -7.136457 -12.983912 -50.255220 1.829941 2.848048 71.725940 3.136188 16.059605 28.523714 8.429100 -0.000000 -48.011400 11.356921 -0.097925 1.455866 3.767849 1.606188 -18.146072 1.004332 -0.427444 17.145626 -2.017337 -7.802378 -9.220500 -0.236300 0.000000 -48.701401 -4.635670 -2.703698 -4.131036 -1.468545 -2.514014 -3.485068 -5.802446 -2.634426 1.081586 8.790331 -10.966362 -9.439013 -3.246492 -0.239938 -0.458099 0.000000 0.000000 0.000000 1.434286 6.960365 1.651957 -76.138759 12.757847 8.368475 -3.515282 -23.112536 0.000711 0.023307 -0.111083 0.000168 -0.080895 -0.042183 -0.000000 0.000000 0.000000 0.000000 0.000000 0.000000 0.000000 14.859908 -8.011841 1.379958 73.488906 -3.158385 0.450306 3.974330 16.645967 0.014978 2.278656 6.030804 0.115949 0.109869 -0.059277 0.000000 0.000000 0.000000 0.000000 0.000000 0.000000 0.000000 
